# xmcd
#
# Track frame offsets:
#	182
#	12618
#	24927
#	38649
#	53042
#	65118
#	77217
#	89624
#	102845
#	116705
#	129609
#	143905
#	156303
#	170058
#	182784
#	196998
#	210058
#	223981
#	235945
#	250209
#	262237
#	275483
#	288115
#	302198
#
# Disc length: 4207 seconds
# Revision: 1
# Processed by: cddbd v1.5.2PL0 Copyright (c) Steve Scherf et al.
# Submitted via: dBpowerAMP V12.0
#
DISCID=6c106d18
DTITLE=T-Bone Walker - Chronological Calssics: 1947
DYEAR=2002
DGENRE=Blues
TTITLE0=I Know Your Wig Is Gone
TTITLE1=T-Bone Jumps Again
TTITLE2=Call It Stormy Monday But Tuesday Is Just as Bad
TTITLE3=She Had to Let Me Down
TTITLE4=She's My Old Time Used-To-Be
TTITLE5=Dream Girl Blues
TTITLE6=Midnight Blues
TTITLE7=Long Lost Lover Blues
TTITLE8=Triflin' Woman Blues
TTITLE9=Long Skirt Baby Blues
TTITLE10=Goodbye Blues
TTITLE11=Too Much Trouble Blues
TTITLE12=I'm Waiting for Your Call
TTITLE13=Hypin' Woman Blues
TTITLE14=So Blue Blues
TTITLE15=On Your Way Blues
TTITLE16=The Natural Blues
TTITLE17=That's Better for Me
TTITLE18=First Love Blues
TTITLE19=Lonesome Women Blues
TTITLE20=Vacation Blues
TTITLE21=Inspiration Blues
TTITLE22=Description Blues
TTITLE23=T-Bone Shuffle
EXTD=
EXTT0=
EXTT1=
EXTT2=
EXTT3=
EXTT4=
EXTT5=
EXTT6=
EXTT7=
EXTT8=
EXTT9=
EXTT10=
EXTT11=
EXTT12=
EXTT13=
EXTT14=
EXTT15=
EXTT16=
EXTT17=
EXTT18=
EXTT19=
EXTT20=
EXTT21=
EXTT22=
EXTT23=
PLAYORDER=
